<svg id="skygrid_logo" xmlns="http://www.w3.org/2000/svg" viewBox="0 0 128 30">
  <defs>
    <style>
      .d {
        fill: #9c27b0;
      }
      .e {
        fill: #444;
      }
    </style>
  </defs>
  <g class="sky">
    <path class="e"
          d="M5.3,19.9c.5,0,1-.1,1.3-.3,.3-.2,.5-.5,.5-.9s0-.5-.2-.6-.4-.3-.9-.5l-2.9-1.2c-1-.4-1.8-1-2.2-1.6-.5-.7-.7-1.5-.7-2.5s.2-1.5,.5-2.2,.8-1.2,1.3-1.6c.6-.4,1.2-.8,1.9-1,.7-.2,1.4-.3,2.2-.3s1.6,.1,2.3,.3c.8,.2,1.5,.5,2.1,.9v4.2c-.8-.6-1.5-1-2.3-1.3-.8-.3-1.5-.5-2.1-.5-1,0-1.6,.4-1.6,1.1s0,.5,.3,.7,.6,.4,1.1,.6l2.7,1.2c1,.4,1.8,.9,2.2,1.6,.5,.7,.7,1.5,.7,2.5s-.2,1.6-.5,2.2c-.4,.6-.8,1.2-1.4,1.6s-1.3,.7-2,1c-.7,.2-1.5,.3-2.3,.3s-1.9-.1-2.8-.4c-.9-.2-1.7-.6-2.4-1.1v-4.3c.7,.6,1.5,1.1,2.5,1.5s1.9,.6,2.8,.6Z"/>
    <path class="e" d="M18.3,0V14.3l5.3-6.8h5.5l-6,7.3,6.2,8.4h-5.5l-5.4-7.7v7.7h-4.7V0h4.7Z"/>
    <path class="e" d="M28.5,7.5h5.1l4,8.2,4-8.2h5l-11.5,22.1h-4.9l4.9-9.2-6.6-13Z"/>
  </g>
  <g class="waves">
    <path class="d" d="M53.5,23.2c-1.2-11.6,8.1-11.6,6.9-23.2h-8.4c1.2,11.6-8.1,11.6-6.9,23.2h8.4Z"/>
    <path class="d" d="M66.8,23.2c-1.2-11.6,8.1-11.6,6.9-23.2h-8.4c1.2,11.6-8.1,11.6-6.9,23.2h8.4Z"/>
  </g>
  <g class="grid">
    <path class="e"
          d="M80.2,7.1c.9,0,1.8,.2,2.6,.5s1.5,.9,2,1.5v-1.6h4.7v14.3c0,1.4-.2,2.6-.7,3.6-.5,1-1.2,1.9-2,2.6s-1.8,1.2-3,1.5c-1.1,.3-2.3,.5-3.6,.5s-2.1-.1-3.1-.4c-1-.2-1.8-.6-2.5-1v-4.7c1.5,1.2,3.3,1.9,5.5,1.9s2.5-.3,3.4-1c.9-.7,1.3-1.6,1.3-2.7v-1.3c-.5,.6-1.2,1.1-2,1.4-.8,.4-1.7,.5-2.6,.5s-2.1-.2-3-.6c-.9-.4-1.7-1-2.3-1.7-.7-.7-1.2-1.5-1.5-2.5-.4-.9-.5-1.9-.5-3s.2-2.1,.5-3,.9-1.8,1.5-2.5c.7-.7,1.4-1.3,2.3-1.7,.9-.4,1.9-.6,3-.6Zm-2.7,7.8c0,.5,0,1,.3,1.5,.2,.5,.5,.9,.8,1.2,.3,.3,.7,.6,1.2,.8,.5,.2,.9,.3,1.4,.3s1,0,1.5-.3c.4-.2,.8-.5,1.2-.8,.3-.3,.6-.7,.8-1.2,.2-.5,.3-1,.3-1.5s0-1-.3-1.5c-.2-.4-.5-.8-.8-1.2-.3-.3-.7-.6-1.2-.8-.4-.2-.9-.3-1.5-.3s-1,0-1.4,.3-.8,.5-1.2,.8c-.3,.3-.6,.7-.8,1.2-.2,.4-.3,.9-.3,1.5Z"/>
    <path class="e"
          d="M92.6,7.5h4.7v2.2c.5-.8,1.2-1.4,2-1.9s1.8-.6,2.8-.6v4.8c-1.5-.2-2.7,0-3.6,.7s-1.3,1.7-1.3,3.1v7.4h-4.7V7.5Z"/>
    <path class="e"
          d="M103.9,2.8c0-.8,.3-1.4,.8-1.9s1.1-.8,1.9-.8h0c.7,0,1.4,.3,1.9,.8s.8,1.2,.8,1.9-.3,1.4-.8,1.9c-.5,.5-1.1,.8-1.9,.8h0c-.7,0-1.4-.3-1.9-.8-.5-.5-.8-1.1-.8-1.9Zm.3,20.4V7.5h4.7v15.7h-4.7Z"/>
    <path class="e"
          d="M118.6,7.1c1,0,1.9,.2,2.7,.6,.8,.4,1.5,.9,2,1.5V0h4.7V23.2h-4.7v-1.7c-.5,.6-1.1,1.1-2,1.5-.8,.4-1.8,.6-2.7,.6s-2.2-.2-3.1-.7c-.9-.4-1.7-1-2.4-1.8-.7-.8-1.2-1.6-1.5-2.6s-.5-2-.5-3.1,.2-2.1,.5-3.1,.9-1.9,1.5-2.6c.6-.8,1.4-1.4,2.3-1.8,.9-.4,2-.7,3.1-.7Zm1,12.4c.5,0,1-.1,1.5-.3,.5-.2,.9-.5,1.2-.9,.3-.4,.6-.8,.8-1.3,.2-.5,.3-1.1,.3-1.6s0-1.2-.3-1.7c-.2-.5-.5-.9-.8-1.3-.3-.4-.7-.7-1.2-.9s-1-.3-1.5-.3-1,.1-1.5,.3-.9,.5-1.2,.9-.6,.8-.8,1.3c-.2,.5-.3,1.1-.3,1.6s0,1.1,.3,1.6c.2,.5,.5,.9,.8,1.3s.7,.7,1.2,.9c.5,.2,1,.3,1.5,.3Z"/>
  </g>
</svg>
